<mxfile host="app.diagrams.net" modified="2023-10-12T22:59:19.454Z" agent="Mozilla/5.0 (Macintosh; Intel Mac OS X 10_15_7) AppleWebKit/537.36 (KHTML, like Gecko) Chrome/117.0.0.0 Safari/537.36" etag="vKpWxrNOFNukSHW1UM5G" version="22.0.4" type="device">
  <diagram name="Page-1" id="UiI8G9Qq_ABQBJwM7g6t">
    <mxGraphModel dx="3124" dy="2209" grid="1" gridSize="10" guides="1" tooltips="1" connect="1" arrows="1" fold="1" page="1" pageScale="1" pageWidth="850" pageHeight="1100" math="0" shadow="0">
      <root>
        <mxCell id="0" />
        <mxCell id="1" parent="0" />
        <mxCell id="pQ_CkCxiemhS4KAJVdbK-13" style="edgeStyle=orthogonalEdgeStyle;rounded=0;orthogonalLoop=1;jettySize=auto;html=1;entryX=0;entryY=0.5;entryDx=0;entryDy=0;" parent="1" source="pQ_CkCxiemhS4KAJVdbK-1" target="pQ_CkCxiemhS4KAJVdbK-12" edge="1">
          <mxGeometry relative="1" as="geometry" />
        </mxCell>
        <mxCell id="pQ_CkCxiemhS4KAJVdbK-17" style="edgeStyle=orthogonalEdgeStyle;rounded=0;orthogonalLoop=1;jettySize=auto;html=1;entryX=0;entryY=0.25;entryDx=0;entryDy=0;" parent="1" source="pQ_CkCxiemhS4KAJVdbK-1" edge="1" target="pQ_CkCxiemhS4KAJVdbK-16">
          <mxGeometry relative="1" as="geometry">
            <mxPoint x="90" y="290" as="targetPoint" />
          </mxGeometry>
        </mxCell>
        <mxCell id="pQ_CkCxiemhS4KAJVdbK-1" value="PC" style="rounded=0;whiteSpace=wrap;html=1;" parent="1" vertex="1">
          <mxGeometry x="-130" y="250" width="90" height="70" as="geometry" />
        </mxCell>
        <mxCell id="pQ_CkCxiemhS4KAJVdbK-24" style="edgeStyle=orthogonalEdgeStyle;rounded=0;orthogonalLoop=1;jettySize=auto;html=1;" parent="1" edge="1">
          <mxGeometry relative="1" as="geometry">
            <mxPoint x="540" as="targetPoint" />
            <mxPoint x="409" y="270" as="sourcePoint" />
            <Array as="points">
              <mxPoint x="409" />
              <mxPoint x="539" />
            </Array>
          </mxGeometry>
        </mxCell>
        <mxCell id="pQ_CkCxiemhS4KAJVdbK-2" value="IF/ID" style="rounded=0;whiteSpace=wrap;html=1;" parent="1" vertex="1">
          <mxGeometry x="320" y="-120.47" width="50" height="1070.47" as="geometry" />
        </mxCell>
        <mxCell id="pQ_CkCxiemhS4KAJVdbK-4" value="ID/EX" style="rounded=0;whiteSpace=wrap;html=1;" parent="1" vertex="1">
          <mxGeometry x="920" y="-110" width="50" height="1060" as="geometry" />
        </mxCell>
        <mxCell id="pQ_CkCxiemhS4KAJVdbK-7" style="edgeStyle=orthogonalEdgeStyle;rounded=0;orthogonalLoop=1;jettySize=auto;html=1;exitX=1;exitY=0.5;exitDx=0;exitDy=-5;exitPerimeter=0;entryX=0;entryY=0.5;entryDx=0;entryDy=0;" parent="1" source="pQ_CkCxiemhS4KAJVdbK-6" target="pQ_CkCxiemhS4KAJVdbK-1" edge="1">
          <mxGeometry relative="1" as="geometry" />
        </mxCell>
        <mxCell id="pQ_CkCxiemhS4KAJVdbK-6" value="PC&lt;br&gt;Mux" style="shadow=0;dashed=0;align=center;html=1;strokeWidth=1;shape=mxgraph.electrical.abstract.mux2;whiteSpace=wrap;" parent="1" vertex="1">
          <mxGeometry x="-240" y="230" width="70" height="120" as="geometry" />
        </mxCell>
        <mxCell id="pQ_CkCxiemhS4KAJVdbK-11" value="&lt;b style=&quot;&quot;&gt;&lt;font color=&quot;#0000ff&quot;&gt;pc_mux_sel&lt;/font&gt;&lt;/b&gt;" style="text;html=1;align=center;verticalAlign=middle;resizable=0;points=[];autosize=1;strokeColor=none;fillColor=none;" parent="1" vertex="1">
          <mxGeometry x="-255" y="358" width="90" height="30" as="geometry" />
        </mxCell>
        <mxCell id="pQ_CkCxiemhS4KAJVdbK-15" style="edgeStyle=orthogonalEdgeStyle;rounded=0;orthogonalLoop=1;jettySize=auto;html=1;exitX=1;exitY=0.5;exitDx=0;exitDy=0;entryX=0;entryY=0.21666666666666667;entryDx=0;entryDy=3;entryPerimeter=0;" parent="1" source="pQ_CkCxiemhS4KAJVdbK-12" target="pQ_CkCxiemhS4KAJVdbK-6" edge="1">
          <mxGeometry relative="1" as="geometry">
            <mxPoint x="-240" y="70" as="targetPoint" />
            <Array as="points">
              <mxPoint x="105" y="155" />
              <mxPoint x="130" y="155" />
              <mxPoint x="130" y="80" />
              <mxPoint x="-260" y="80" />
              <mxPoint x="-260" y="259" />
            </Array>
          </mxGeometry>
        </mxCell>
        <mxCell id="pQ_CkCxiemhS4KAJVdbK-12" value="+4" style="rounded=0;whiteSpace=wrap;html=1;" parent="1" vertex="1">
          <mxGeometry x="45" y="120" width="60" height="50" as="geometry" />
        </mxCell>
        <mxCell id="pQ_CkCxiemhS4KAJVdbK-14" style="edgeStyle=orthogonalEdgeStyle;rounded=0;orthogonalLoop=1;jettySize=auto;html=1;entryX=0.015;entryY=0.257;entryDx=0;entryDy=0;entryPerimeter=0;" parent="1" target="pQ_CkCxiemhS4KAJVdbK-2" edge="1">
          <mxGeometry relative="1" as="geometry">
            <mxPoint x="310" y="140" as="targetPoint" />
            <Array as="points">
              <mxPoint x="200" y="200" />
              <mxPoint x="200" y="155" />
            </Array>
            <mxPoint y="200" as="sourcePoint" />
          </mxGeometry>
        </mxCell>
        <mxCell id="pQ_CkCxiemhS4KAJVdbK-16" value="I Cache" style="rounded=0;whiteSpace=wrap;html=1;" parent="1" vertex="1">
          <mxGeometry x="185" y="240" width="80" height="180" as="geometry" />
        </mxCell>
        <mxCell id="pQ_CkCxiemhS4KAJVdbK-19" value="Physical Memory" style="rounded=0;whiteSpace=wrap;html=1;" parent="1" vertex="1">
          <mxGeometry x="560" y="1140" width="670" height="60" as="geometry" />
        </mxCell>
        <mxCell id="pQ_CkCxiemhS4KAJVdbK-21" value="PC" style="text;html=1;align=center;verticalAlign=middle;resizable=0;points=[];autosize=1;strokeColor=none;fillColor=none;" parent="1" vertex="1">
          <mxGeometry x="220" y="130" width="40" height="30" as="geometry" />
        </mxCell>
        <mxCell id="pQ_CkCxiemhS4KAJVdbK-22" value="instr" style="text;html=1;align=center;verticalAlign=middle;resizable=0;points=[];autosize=1;strokeColor=none;fillColor=none;" parent="1" vertex="1">
          <mxGeometry x="280" y="300" width="50" height="30" as="geometry" />
        </mxCell>
        <mxCell id="pQ_CkCxiemhS4KAJVdbK-25" value="opcode" style="text;html=1;align=center;verticalAlign=middle;resizable=0;points=[];autosize=1;strokeColor=none;fillColor=none;" parent="1" vertex="1">
          <mxGeometry x="459" y="-30" width="60" height="30" as="geometry" />
        </mxCell>
        <mxCell id="pQ_CkCxiemhS4KAJVdbK-27" style="edgeStyle=orthogonalEdgeStyle;rounded=0;orthogonalLoop=1;jettySize=auto;html=1;" parent="1" edge="1">
          <mxGeometry relative="1" as="geometry">
            <mxPoint x="550" y="70" as="targetPoint" />
            <mxPoint x="409" y="302" as="sourcePoint" />
            <Array as="points">
              <mxPoint x="409" y="70" />
              <mxPoint x="539" y="70" />
            </Array>
          </mxGeometry>
        </mxCell>
        <mxCell id="pQ_CkCxiemhS4KAJVdbK-28" style="edgeStyle=orthogonalEdgeStyle;rounded=0;orthogonalLoop=1;jettySize=auto;html=1;" parent="1" edge="1">
          <mxGeometry relative="1" as="geometry">
            <mxPoint x="607" y="342" as="targetPoint" />
            <mxPoint x="409" y="340" as="sourcePoint" />
            <Array as="points">
              <mxPoint x="569" y="342" />
              <mxPoint x="569" y="342" />
            </Array>
          </mxGeometry>
        </mxCell>
        <mxCell id="pQ_CkCxiemhS4KAJVdbK-29" value="funct3" style="text;html=1;align=center;verticalAlign=middle;resizable=0;points=[];autosize=1;strokeColor=none;fillColor=none;" parent="1" vertex="1">
          <mxGeometry x="459" y="10" width="60" height="30" as="geometry" />
        </mxCell>
        <mxCell id="pQ_CkCxiemhS4KAJVdbK-30" value="funct7" style="text;html=1;align=center;verticalAlign=middle;resizable=0;points=[];autosize=1;strokeColor=none;fillColor=none;" parent="1" vertex="1">
          <mxGeometry x="459" y="40" width="60" height="30" as="geometry" />
        </mxCell>
        <mxCell id="pQ_CkCxiemhS4KAJVdbK-31" value="rs1" style="text;html=1;align=center;verticalAlign=middle;resizable=0;points=[];autosize=1;strokeColor=none;fillColor=none;" parent="1" vertex="1">
          <mxGeometry x="469" y="310" width="40" height="30" as="geometry" />
        </mxCell>
        <mxCell id="pQ_CkCxiemhS4KAJVdbK-32" style="edgeStyle=orthogonalEdgeStyle;rounded=0;orthogonalLoop=1;jettySize=auto;html=1;" parent="1" edge="1">
          <mxGeometry relative="1" as="geometry">
            <mxPoint x="607" y="382" as="targetPoint" />
            <mxPoint x="409" y="380" as="sourcePoint" />
            <Array as="points">
              <mxPoint x="512" y="382" />
              <mxPoint x="577" y="382" />
            </Array>
          </mxGeometry>
        </mxCell>
        <mxCell id="pQ_CkCxiemhS4KAJVdbK-33" value="rs2" style="text;html=1;align=center;verticalAlign=middle;resizable=0;points=[];autosize=1;strokeColor=none;fillColor=none;" parent="1" vertex="1">
          <mxGeometry x="469" y="350" width="40" height="30" as="geometry" />
        </mxCell>
        <mxCell id="pQ_CkCxiemhS4KAJVdbK-34" style="edgeStyle=orthogonalEdgeStyle;rounded=0;orthogonalLoop=1;jettySize=auto;html=1;exitX=-0.009;exitY=1.123;exitDx=0;exitDy=0;exitPerimeter=0;" parent="1" source="pQ_CkCxiemhS4KAJVdbK-35" edge="1">
          <mxGeometry relative="1" as="geometry">
            <mxPoint x="607" y="420" as="targetPoint" />
            <mxPoint x="409" y="260" as="sourcePoint" />
            <Array as="points">
              <mxPoint x="474" y="420" />
            </Array>
          </mxGeometry>
        </mxCell>
        <mxCell id="pQ_CkCxiemhS4KAJVdbK-35" value="rd" style="text;html=1;align=center;verticalAlign=middle;resizable=0;points=[];autosize=1;strokeColor=none;fillColor=none;" parent="1" vertex="1">
          <mxGeometry x="474" y="385" width="30" height="30" as="geometry" />
        </mxCell>
        <mxCell id="pQ_CkCxiemhS4KAJVdbK-42" style="edgeStyle=orthogonalEdgeStyle;rounded=0;orthogonalLoop=1;jettySize=auto;html=1;entryX=0.04;entryY=0.377;entryDx=0;entryDy=0;entryPerimeter=0;" parent="1" edge="1">
          <mxGeometry relative="1" as="geometry">
            <mxPoint x="921" y="359.80999999999995" as="targetPoint" />
            <mxPoint x="749" y="359.90931034482765" as="sourcePoint" />
          </mxGeometry>
        </mxCell>
        <mxCell id="pQ_CkCxiemhS4KAJVdbK-36" value="Registerfile" style="rounded=0;whiteSpace=wrap;html=1;" parent="1" vertex="1">
          <mxGeometry x="609" y="310" width="140" height="170" as="geometry" />
        </mxCell>
        <mxCell id="pQ_CkCxiemhS4KAJVdbK-37" value="Reg&amp;nbsp;&lt;br&gt;Write" style="text;html=1;align=center;verticalAlign=middle;resizable=0;points=[];autosize=1;strokeColor=none;fillColor=none;" parent="1" vertex="1">
          <mxGeometry x="654" y="222" width="50" height="40" as="geometry" />
        </mxCell>
        <mxCell id="pQ_CkCxiemhS4KAJVdbK-38" style="edgeStyle=orthogonalEdgeStyle;rounded=0;orthogonalLoop=1;jettySize=auto;html=1;entryX=0.11;entryY=-0.02;entryDx=0;entryDy=0;entryPerimeter=0;" parent="1" source="pQ_CkCxiemhS4KAJVdbK-37" edge="1">
          <mxGeometry relative="1" as="geometry">
            <mxPoint x="679.4000000000001" y="310" as="targetPoint" />
          </mxGeometry>
        </mxCell>
        <mxCell id="pQ_CkCxiemhS4KAJVdbK-43" value="reg1" style="text;html=1;align=center;verticalAlign=middle;resizable=0;points=[];autosize=1;strokeColor=none;fillColor=none;" parent="1" vertex="1">
          <mxGeometry x="759" y="329.53" width="50" height="30" as="geometry" />
        </mxCell>
        <mxCell id="pQ_CkCxiemhS4KAJVdbK-44" style="edgeStyle=orthogonalEdgeStyle;rounded=0;orthogonalLoop=1;jettySize=auto;html=1;entryX=-0.02;entryY=0.453;entryDx=0;entryDy=0;entryPerimeter=0;" parent="1" edge="1">
          <mxGeometry relative="1" as="geometry">
            <mxPoint x="918" y="419.50000000000006" as="targetPoint" />
            <mxPoint x="749" y="418.94" as="sourcePoint" />
          </mxGeometry>
        </mxCell>
        <mxCell id="pQ_CkCxiemhS4KAJVdbK-45" value="reg2" style="text;html=1;align=center;verticalAlign=middle;resizable=0;points=[];autosize=1;strokeColor=none;fillColor=none;" parent="1" vertex="1">
          <mxGeometry x="759" y="390" width="50" height="30" as="geometry" />
        </mxCell>
        <mxCell id="pQ_CkCxiemhS4KAJVdbK-52" style="edgeStyle=orthogonalEdgeStyle;rounded=0;orthogonalLoop=1;jettySize=auto;html=1;entryX=0;entryY=0.25;entryDx=0;entryDy=0;" parent="1" target="pQ_CkCxiemhS4KAJVdbK-4" edge="1">
          <mxGeometry relative="1" as="geometry">
            <mxPoint x="370" y="154.5" as="sourcePoint" />
            <mxPoint x="921" y="160" as="targetPoint" />
            <Array as="points">
              <mxPoint x="830" y="155" />
              <mxPoint x="920" y="155" />
            </Array>
          </mxGeometry>
        </mxCell>
        <mxCell id="pQ_CkCxiemhS4KAJVdbK-55" style="edgeStyle=orthogonalEdgeStyle;rounded=0;orthogonalLoop=1;jettySize=auto;html=1;entryX=0.03;entryY=0.421;entryDx=0;entryDy=0;entryPerimeter=0;" parent="1" source="pQ_CkCxiemhS4KAJVdbK-16" target="pQ_CkCxiemhS4KAJVdbK-2" edge="1">
          <mxGeometry relative="1" as="geometry">
            <mxPoint x="317" y="340" as="targetPoint" />
            <Array as="points">
              <mxPoint x="320" y="330" />
            </Array>
          </mxGeometry>
        </mxCell>
        <mxCell id="pQ_CkCxiemhS4KAJVdbK-56" style="edgeStyle=orthogonalEdgeStyle;rounded=0;orthogonalLoop=1;jettySize=auto;html=1;" parent="1" edge="1">
          <mxGeometry relative="1" as="geometry">
            <mxPoint x="540" y="40" as="targetPoint" />
            <mxPoint x="410" y="264.85999999999996" as="sourcePoint" />
            <Array as="points">
              <mxPoint x="410" y="40" />
            </Array>
          </mxGeometry>
        </mxCell>
        <mxCell id="pQ_CkCxiemhS4KAJVdbK-57" style="edgeStyle=orthogonalEdgeStyle;rounded=0;orthogonalLoop=1;jettySize=auto;html=1;entryX=0;entryY=0.794;entryDx=0;entryDy=0;entryPerimeter=0;" parent="1" edge="1">
          <mxGeometry relative="1" as="geometry">
            <mxPoint x="920" y="919.9999999999999" as="targetPoint" />
            <mxPoint x="410" y="920.38" as="sourcePoint" />
            <Array as="points" />
          </mxGeometry>
        </mxCell>
        <mxCell id="pQ_CkCxiemhS4KAJVdbK-58" style="edgeStyle=orthogonalEdgeStyle;rounded=0;orthogonalLoop=1;jettySize=auto;html=1;" parent="1" edge="1">
          <mxGeometry relative="1" as="geometry">
            <mxPoint x="370" y="330" as="sourcePoint" />
            <mxPoint x="410" y="330" as="targetPoint" />
          </mxGeometry>
        </mxCell>
        <mxCell id="pQ_CkCxiemhS4KAJVdbK-59" value="" style="endArrow=classic;html=1;rounded=0;entryX=-0.018;entryY=0.835;entryDx=0;entryDy=0;entryPerimeter=0;" parent="1" target="pQ_CkCxiemhS4KAJVdbK-36" edge="1">
          <mxGeometry width="50" height="50" relative="1" as="geometry">
            <mxPoint x="540" y="452" as="sourcePoint" />
            <mxPoint x="560" y="480" as="targetPoint" />
          </mxGeometry>
        </mxCell>
        <mxCell id="pQ_CkCxiemhS4KAJVdbK-60" value="Write data" style="text;html=1;align=center;verticalAlign=middle;resizable=0;points=[];autosize=1;strokeColor=none;fillColor=none;" parent="1" vertex="1">
          <mxGeometry x="529" y="450" width="80" height="30" as="geometry" />
        </mxCell>
        <mxCell id="pQ_CkCxiemhS4KAJVdbK-65" value="" style="endArrow=none;html=1;rounded=0;exitX=0;exitY=0.5;exitDx=0;exitDy=0;" parent="1" source="pQ_CkCxiemhS4KAJVdbK-67" edge="1">
          <mxGeometry width="50" height="50" relative="1" as="geometry">
            <mxPoint x="620" y="580" as="sourcePoint" />
            <mxPoint x="410" y="260" as="targetPoint" />
            <Array as="points">
              <mxPoint x="410" y="590" />
            </Array>
          </mxGeometry>
        </mxCell>
        <mxCell id="pQ_CkCxiemhS4KAJVdbK-67" value="sign ext 16-32" style="ellipse;whiteSpace=wrap;html=1;" parent="1" vertex="1">
          <mxGeometry x="619" y="550" width="111" height="80" as="geometry" />
        </mxCell>
        <mxCell id="pQ_CkCxiemhS4KAJVdbK-68" style="edgeStyle=orthogonalEdgeStyle;rounded=0;orthogonalLoop=1;jettySize=auto;html=1;" parent="1" source="pQ_CkCxiemhS4KAJVdbK-67" edge="1">
          <mxGeometry relative="1" as="geometry">
            <mxPoint x="918" y="590" as="targetPoint" />
            <Array as="points">
              <mxPoint x="918" y="590" />
            </Array>
          </mxGeometry>
        </mxCell>
        <mxCell id="pQ_CkCxiemhS4KAJVdbK-69" value="imm[15:0]" style="text;html=1;align=center;verticalAlign=middle;resizable=0;points=[];autosize=1;strokeColor=none;fillColor=none;" parent="1" vertex="1">
          <mxGeometry x="539" y="560" width="80" height="30" as="geometry" />
        </mxCell>
        <mxCell id="pQ_CkCxiemhS4KAJVdbK-70" value="EX/MEM" style="rounded=0;whiteSpace=wrap;html=1;" parent="1" vertex="1">
          <mxGeometry x="1450" y="-110" width="70" height="1070" as="geometry" />
        </mxCell>
        <mxCell id="pQ_CkCxiemhS4KAJVdbK-74" value="" style="endArrow=none;html=1;rounded=0;" parent="1" edge="1">
          <mxGeometry width="50" height="50" relative="1" as="geometry">
            <mxPoint x="410" y="920" as="sourcePoint" />
            <mxPoint x="410" y="590" as="targetPoint" />
          </mxGeometry>
        </mxCell>
        <mxCell id="pQ_CkCxiemhS4KAJVdbK-82" value="" style="endArrow=classic;html=1;rounded=0;exitX=1;exitY=0.25;exitDx=0;exitDy=0;edgeStyle=orthogonalEdgeStyle;entryX=0;entryY=0.21363636363636365;entryDx=0;entryDy=3;entryPerimeter=0;" parent="1" source="pQ_CkCxiemhS4KAJVdbK-4" target="Tf9UtijGRLtNXAYoO0uQ-73" edge="1">
          <mxGeometry width="50" height="50" relative="1" as="geometry">
            <mxPoint x="1180" y="310" as="sourcePoint" />
            <mxPoint x="1170" y="153" as="targetPoint" />
          </mxGeometry>
        </mxCell>
        <mxCell id="pQ_CkCxiemhS4KAJVdbK-86" value="ALU" style="shape=offPageConnector;whiteSpace=wrap;html=1;rotation=-90;" parent="1" vertex="1">
          <mxGeometry x="1255" y="365" width="155" height="80" as="geometry" />
        </mxCell>
        <mxCell id="pQ_CkCxiemhS4KAJVdbK-90" style="edgeStyle=orthogonalEdgeStyle;rounded=0;orthogonalLoop=1;jettySize=auto;html=1;exitX=1;exitY=0.5;exitDx=0;exitDy=-5;exitPerimeter=0;entryX=0.25;entryY=0;entryDx=0;entryDy=0;" parent="1" source="pQ_CkCxiemhS4KAJVdbK-87" target="pQ_CkCxiemhS4KAJVdbK-86" edge="1">
          <mxGeometry relative="1" as="geometry" />
        </mxCell>
        <mxCell id="pQ_CkCxiemhS4KAJVdbK-87" value="ALU&lt;br&gt;Mux2" style="shadow=0;dashed=0;align=center;html=1;strokeWidth=1;shape=mxgraph.electrical.abstract.mux2;whiteSpace=wrap;" parent="1" vertex="1">
          <mxGeometry x="1140" y="390" width="80" height="118" as="geometry" />
        </mxCell>
        <mxCell id="pQ_CkCxiemhS4KAJVdbK-89" style="edgeStyle=orthogonalEdgeStyle;rounded=0;orthogonalLoop=1;jettySize=auto;html=1;entryX=0;entryY=0.640909090909091;entryDx=0;entryDy=3;entryPerimeter=0;" parent="1" target="Tf9UtijGRLtNXAYoO0uQ-73" edge="1">
          <mxGeometry relative="1" as="geometry">
            <mxPoint x="1140" y="360" as="targetPoint" />
            <mxPoint x="970" y="359.6293103448277" as="sourcePoint" />
            <Array as="points">
              <mxPoint x="990" y="360" />
              <mxPoint x="990" y="344" />
            </Array>
          </mxGeometry>
        </mxCell>
        <mxCell id="pQ_CkCxiemhS4KAJVdbK-92" style="edgeStyle=orthogonalEdgeStyle;rounded=0;orthogonalLoop=1;jettySize=auto;html=1;entryX=0;entryY=0.65;entryDx=0;entryDy=3;entryPerimeter=0;" parent="1" target="pQ_CkCxiemhS4KAJVdbK-87" edge="1">
          <mxGeometry relative="1" as="geometry">
            <mxPoint x="1033" y="590" as="sourcePoint" />
            <mxPoint x="1110" y="420" as="targetPoint" />
            <Array as="points">
              <mxPoint x="1040" y="591" />
              <mxPoint x="1040" y="469" />
            </Array>
          </mxGeometry>
        </mxCell>
        <mxCell id="pQ_CkCxiemhS4KAJVdbK-93" style="edgeStyle=orthogonalEdgeStyle;rounded=0;orthogonalLoop=1;jettySize=auto;html=1;entryX=-0.02;entryY=0.453;entryDx=0;entryDy=0;entryPerimeter=0;" parent="1" edge="1">
          <mxGeometry relative="1" as="geometry">
            <mxPoint x="1139" y="419.53000000000003" as="targetPoint" />
            <mxPoint x="970" y="418.96999999999997" as="sourcePoint" />
          </mxGeometry>
        </mxCell>
        <mxCell id="pQ_CkCxiemhS4KAJVdbK-95" style="edgeStyle=orthogonalEdgeStyle;rounded=0;orthogonalLoop=1;jettySize=auto;html=1;" parent="1" source="pQ_CkCxiemhS4KAJVdbK-86" edge="1">
          <mxGeometry relative="1" as="geometry">
            <mxPoint x="1448" y="405" as="targetPoint" />
            <Array as="points">
              <mxPoint x="1448" y="405" />
            </Array>
          </mxGeometry>
        </mxCell>
        <mxCell id="pQ_CkCxiemhS4KAJVdbK-96" style="edgeStyle=orthogonalEdgeStyle;rounded=0;orthogonalLoop=1;jettySize=auto;html=1;" parent="1" edge="1">
          <mxGeometry relative="1" as="geometry">
            <mxPoint x="1450" y="570" as="targetPoint" />
            <mxPoint x="1000" y="420" as="sourcePoint" />
            <Array as="points">
              <mxPoint x="1000" y="560" />
            </Array>
          </mxGeometry>
        </mxCell>
        <mxCell id="pQ_CkCxiemhS4KAJVdbK-100" value="" style="endArrow=classic;html=1;rounded=0;exitX=1.017;exitY=0.819;exitDx=0;exitDy=0;exitPerimeter=0;entryX=-0.045;entryY=0.963;entryDx=0;entryDy=0;entryPerimeter=0;" parent="1" edge="1" target="pQ_CkCxiemhS4KAJVdbK-70">
          <mxGeometry width="50" height="50" relative="1" as="geometry">
            <mxPoint x="970" y="920" as="sourcePoint" />
            <mxPoint x="1099" y="920" as="targetPoint" />
          </mxGeometry>
        </mxCell>
        <mxCell id="pQ_CkCxiemhS4KAJVdbK-101" style="edgeStyle=orthogonalEdgeStyle;rounded=0;orthogonalLoop=1;jettySize=auto;html=1;exitX=1;exitY=0.5;exitDx=0;exitDy=-5;exitPerimeter=0;entryX=-0.014;entryY=0.972;entryDx=0;entryDy=0;entryPerimeter=0;" parent="1" edge="1" target="Tf9UtijGRLtNXAYoO0uQ-5">
          <mxGeometry relative="1" as="geometry">
            <mxPoint x="1786.5" y="919.9999999999997" as="targetPoint" />
            <Array as="points">
              <mxPoint x="1653" y="919" />
              <mxPoint x="1653" y="920" />
            </Array>
            <mxPoint x="1520" y="919.12" as="sourcePoint" />
          </mxGeometry>
        </mxCell>
        <mxCell id="pQ_CkCxiemhS4KAJVdbK-102" value="CMP" style="rounded=0;whiteSpace=wrap;html=1;" parent="1" vertex="1">
          <mxGeometry x="1242.5" y="640" width="117.5" height="140" as="geometry" />
        </mxCell>
        <mxCell id="pQ_CkCxiemhS4KAJVdbK-103" value="D Cache" style="rounded=0;whiteSpace=wrap;html=1;" parent="1" vertex="1">
          <mxGeometry x="1730" y="380" width="150" height="240" as="geometry" />
        </mxCell>
        <mxCell id="pQ_CkCxiemhS4KAJVdbK-104" value="CMP&lt;br&gt;Mux" style="shadow=0;dashed=0;align=center;html=1;strokeWidth=1;shape=mxgraph.electrical.abstract.mux2;whiteSpace=wrap;" parent="1" vertex="1">
          <mxGeometry x="1100" y="680" width="80" height="130" as="geometry" />
        </mxCell>
        <mxCell id="Tf9UtijGRLtNXAYoO0uQ-1" style="edgeStyle=orthogonalEdgeStyle;rounded=0;orthogonalLoop=1;jettySize=auto;html=1;entryX=-0.081;entryY=0.321;entryDx=0;entryDy=0;entryPerimeter=0;" parent="1" edge="1">
          <mxGeometry relative="1" as="geometry">
            <mxPoint x="1520" y="411.38" as="sourcePoint" />
            <mxPoint x="1729" y="411.38" as="targetPoint" />
          </mxGeometry>
        </mxCell>
        <mxCell id="Tf9UtijGRLtNXAYoO0uQ-3" style="edgeStyle=orthogonalEdgeStyle;rounded=0;orthogonalLoop=1;jettySize=auto;html=1;entryX=-0.081;entryY=0.321;entryDx=0;entryDy=0;entryPerimeter=0;" parent="1" edge="1">
          <mxGeometry relative="1" as="geometry">
            <mxPoint x="1521" y="560" as="sourcePoint" />
            <mxPoint x="1730" y="560" as="targetPoint" />
          </mxGeometry>
        </mxCell>
        <mxCell id="Tf9UtijGRLtNXAYoO0uQ-4" style="edgeStyle=orthogonalEdgeStyle;rounded=0;orthogonalLoop=1;jettySize=auto;html=1;exitX=0.052;exitY=1.09;exitDx=0;exitDy=0;entryX=0;entryY=0.65;entryDx=0;entryDy=3;entryPerimeter=0;exitPerimeter=0;" parent="1" source="Tf9UtijGRLtNXAYoO0uQ-56" target="pQ_CkCxiemhS4KAJVdbK-6" edge="1">
          <mxGeometry relative="1" as="geometry">
            <Array as="points">
              <mxPoint x="1594" y="-220" />
              <mxPoint x="-370" y="-220" />
              <mxPoint x="-370" y="311" />
            </Array>
          </mxGeometry>
        </mxCell>
        <mxCell id="Tf9UtijGRLtNXAYoO0uQ-5" value="MEM/WB" style="rounded=0;whiteSpace=wrap;html=1;" parent="1" vertex="1">
          <mxGeometry x="2000" y="-110" width="70" height="1060" as="geometry" />
        </mxCell>
        <mxCell id="Tf9UtijGRLtNXAYoO0uQ-6" style="edgeStyle=orthogonalEdgeStyle;rounded=0;orthogonalLoop=1;jettySize=auto;html=1;" parent="1" edge="1">
          <mxGeometry relative="1" as="geometry">
            <mxPoint x="1600" y="410" as="sourcePoint" />
            <mxPoint x="1998" y="641" as="targetPoint" />
            <Array as="points">
              <mxPoint x="1600" y="411" />
              <mxPoint x="1590" y="411" />
              <mxPoint x="1590" y="640" />
              <mxPoint x="1920" y="640" />
              <mxPoint x="1920" y="641" />
            </Array>
          </mxGeometry>
        </mxCell>
        <mxCell id="Tf9UtijGRLtNXAYoO0uQ-7" style="edgeStyle=orthogonalEdgeStyle;rounded=0;orthogonalLoop=1;jettySize=auto;html=1;exitX=1;exitY=0.25;exitDx=0;exitDy=0;" parent="1" source="pQ_CkCxiemhS4KAJVdbK-103" edge="1">
          <mxGeometry relative="1" as="geometry">
            <mxPoint x="2000" y="420" as="targetPoint" />
            <Array as="points">
              <mxPoint x="1880" y="420" />
              <mxPoint x="2000" y="420" />
            </Array>
          </mxGeometry>
        </mxCell>
        <mxCell id="Tf9UtijGRLtNXAYoO0uQ-10" style="edgeStyle=orthogonalEdgeStyle;rounded=0;orthogonalLoop=1;jettySize=auto;html=1;entryX=-0.074;entryY=0.767;entryDx=0;entryDy=0;entryPerimeter=0;" parent="1" source="pQ_CkCxiemhS4KAJVdbK-102" target="pQ_CkCxiemhS4KAJVdbK-70" edge="1">
          <mxGeometry relative="1" as="geometry">
            <Array as="points">
              <mxPoint x="1405" y="710" />
            </Array>
          </mxGeometry>
        </mxCell>
        <mxCell id="Tf9UtijGRLtNXAYoO0uQ-11" style="edgeStyle=orthogonalEdgeStyle;rounded=0;orthogonalLoop=1;jettySize=auto;html=1;entryX=0;entryY=0.21923076923076923;entryDx=0;entryDy=3;entryPerimeter=0;" parent="1" target="pQ_CkCxiemhS4KAJVdbK-104" edge="1">
          <mxGeometry relative="1" as="geometry">
            <mxPoint x="1100" y="730" as="targetPoint" />
            <mxPoint x="1000" y="550" as="sourcePoint" />
            <Array as="points">
              <mxPoint x="1000" y="712" />
              <mxPoint x="1100" y="712" />
            </Array>
          </mxGeometry>
        </mxCell>
        <mxCell id="Tf9UtijGRLtNXAYoO0uQ-12" style="edgeStyle=orthogonalEdgeStyle;rounded=0;orthogonalLoop=1;jettySize=auto;html=1;" parent="1" target="pQ_CkCxiemhS4KAJVdbK-104" edge="1">
          <mxGeometry relative="1" as="geometry">
            <mxPoint x="1140" y="752" as="targetPoint" />
            <mxPoint x="1040" y="590" as="sourcePoint" />
            <Array as="points">
              <mxPoint x="1040" y="768" />
            </Array>
          </mxGeometry>
        </mxCell>
        <mxCell id="Tf9UtijGRLtNXAYoO0uQ-15" style="edgeStyle=orthogonalEdgeStyle;rounded=0;orthogonalLoop=1;jettySize=auto;html=1;exitX=1;exitY=0.5;exitDx=0;exitDy=-5;exitPerimeter=0;" parent="1" source="pQ_CkCxiemhS4KAJVdbK-104" edge="1">
          <mxGeometry relative="1" as="geometry">
            <mxPoint x="1240" y="740" as="targetPoint" />
          </mxGeometry>
        </mxCell>
        <mxCell id="Tf9UtijGRLtNXAYoO0uQ-16" style="edgeStyle=orthogonalEdgeStyle;rounded=0;orthogonalLoop=1;jettySize=auto;html=1;" parent="1" edge="1">
          <mxGeometry relative="1" as="geometry">
            <mxPoint x="1240" y="660" as="targetPoint" />
            <mxPoint x="990" y="358" as="sourcePoint" />
            <Array as="points">
              <mxPoint x="990" y="660" />
              <mxPoint x="1090" y="660" />
            </Array>
          </mxGeometry>
        </mxCell>
        <mxCell id="Tf9UtijGRLtNXAYoO0uQ-17" value="Br_en" style="text;html=1;align=center;verticalAlign=middle;resizable=0;points=[];autosize=1;strokeColor=none;fillColor=none;" parent="1" vertex="1">
          <mxGeometry x="1380" y="678" width="60" height="30" as="geometry" />
        </mxCell>
        <mxCell id="Tf9UtijGRLtNXAYoO0uQ-20" value="REGFILE&lt;br&gt;MUX" style="shadow=0;dashed=0;align=center;html=1;strokeWidth=1;shape=mxgraph.electrical.abstract.mux2;whiteSpace=wrap;" parent="1" vertex="1">
          <mxGeometry x="2230" y="374" width="80" height="432" as="geometry" />
        </mxCell>
        <mxCell id="Tf9UtijGRLtNXAYoO0uQ-21" style="edgeStyle=orthogonalEdgeStyle;rounded=0;orthogonalLoop=1;jettySize=auto;html=1;exitX=0.998;exitY=0.508;exitDx=0;exitDy=0;exitPerimeter=0;entryX=0.125;entryY=0.118;entryDx=0;entryDy=0;entryPerimeter=0;" parent="1" source="Tf9UtijGRLtNXAYoO0uQ-5" target="Tf9UtijGRLtNXAYoO0uQ-20" edge="1">
          <mxGeometry relative="1" as="geometry">
            <mxPoint x="2090" y="445" as="sourcePoint" />
            <mxPoint x="2210" y="435" as="targetPoint" />
            <Array as="points">
              <mxPoint x="2070" y="425" />
            </Array>
          </mxGeometry>
        </mxCell>
        <mxCell id="Tf9UtijGRLtNXAYoO0uQ-23" style="edgeStyle=orthogonalEdgeStyle;rounded=0;orthogonalLoop=1;jettySize=auto;html=1;exitX=0.998;exitY=0.508;exitDx=0;exitDy=0;exitPerimeter=0;entryX=0.154;entryY=0.616;entryDx=0;entryDy=0;entryPerimeter=0;" parent="1" target="Tf9UtijGRLtNXAYoO0uQ-20" edge="1">
          <mxGeometry relative="1" as="geometry">
            <mxPoint x="2070" y="643" as="sourcePoint" />
            <mxPoint x="2237" y="654" as="targetPoint" />
            <Array as="points">
              <mxPoint x="2070" y="640" />
              <mxPoint x="2240" y="640" />
            </Array>
          </mxGeometry>
        </mxCell>
        <mxCell id="Tf9UtijGRLtNXAYoO0uQ-24" style="edgeStyle=orthogonalEdgeStyle;rounded=0;orthogonalLoop=1;jettySize=auto;html=1;entryX=-0.031;entryY=0.779;entryDx=0;entryDy=0;entryPerimeter=0;" parent="1" target="Tf9UtijGRLtNXAYoO0uQ-5" edge="1">
          <mxGeometry relative="1" as="geometry">
            <mxPoint x="1514" y="715" as="sourcePoint" />
            <mxPoint x="1990" y="720" as="targetPoint" />
            <Array as="points">
              <mxPoint x="1990" y="715" />
            </Array>
          </mxGeometry>
        </mxCell>
        <mxCell id="Tf9UtijGRLtNXAYoO0uQ-25" style="edgeStyle=orthogonalEdgeStyle;rounded=0;orthogonalLoop=1;jettySize=auto;html=1;exitX=1.015;exitY=0.773;exitDx=0;exitDy=0;exitPerimeter=0;" parent="1" source="Tf9UtijGRLtNXAYoO0uQ-5" edge="1">
          <mxGeometry relative="1" as="geometry">
            <mxPoint x="2080" y="710" as="sourcePoint" />
            <mxPoint x="2240" y="710" as="targetPoint" />
            <Array as="points">
              <mxPoint x="2080" y="709" />
            </Array>
          </mxGeometry>
        </mxCell>
        <mxCell id="Tf9UtijGRLtNXAYoO0uQ-26" style="edgeStyle=orthogonalEdgeStyle;rounded=0;orthogonalLoop=1;jettySize=auto;html=1;entryX=-0.031;entryY=0.779;entryDx=0;entryDy=0;entryPerimeter=0;" parent="1" edge="1">
          <mxGeometry relative="1" as="geometry">
            <mxPoint x="966" y="589" as="sourcePoint" />
            <mxPoint x="1450" y="590" as="targetPoint" />
            <Array as="points">
              <mxPoint x="1442" y="589" />
            </Array>
          </mxGeometry>
        </mxCell>
        <mxCell id="Tf9UtijGRLtNXAYoO0uQ-27" style="edgeStyle=orthogonalEdgeStyle;rounded=0;orthogonalLoop=1;jettySize=auto;html=1;entryX=-0.031;entryY=0.779;entryDx=0;entryDy=0;entryPerimeter=0;exitX=1.005;exitY=0.655;exitDx=0;exitDy=0;exitPerimeter=0;" parent="1" source="pQ_CkCxiemhS4KAJVdbK-70" edge="1">
          <mxGeometry relative="1" as="geometry">
            <mxPoint x="1516" y="678" as="sourcePoint" />
            <mxPoint x="2000" y="679" as="targetPoint" />
            <Array as="points">
              <mxPoint x="1560" y="591" />
              <mxPoint x="1560" y="678" />
              <mxPoint x="1992" y="678" />
              <mxPoint x="1992" y="679" />
            </Array>
          </mxGeometry>
        </mxCell>
        <mxCell id="Tf9UtijGRLtNXAYoO0uQ-28" style="edgeStyle=orthogonalEdgeStyle;rounded=0;orthogonalLoop=1;jettySize=auto;html=1;exitX=0.998;exitY=0.508;exitDx=0;exitDy=0;exitPerimeter=0;entryX=0.154;entryY=0.616;entryDx=0;entryDy=0;entryPerimeter=0;" parent="1" edge="1">
          <mxGeometry relative="1" as="geometry">
            <mxPoint x="2070" y="678" as="sourcePoint" />
            <mxPoint x="2242" y="675" as="targetPoint" />
            <Array as="points">
              <mxPoint x="2070" y="675" />
              <mxPoint x="2240" y="675" />
            </Array>
          </mxGeometry>
        </mxCell>
        <mxCell id="Tf9UtijGRLtNXAYoO0uQ-29" style="edgeStyle=orthogonalEdgeStyle;rounded=0;orthogonalLoop=1;jettySize=auto;html=1;" parent="1" edge="1">
          <mxGeometry relative="1" as="geometry">
            <mxPoint x="2310" y="585" as="sourcePoint" />
            <mxPoint x="540" y="445" as="targetPoint" />
            <Array as="points">
              <mxPoint x="2310" y="585" />
              <mxPoint x="2480" y="585" />
              <mxPoint x="2480" y="1045" />
              <mxPoint x="540" y="1045" />
            </Array>
          </mxGeometry>
        </mxCell>
        <mxCell id="Tf9UtijGRLtNXAYoO0uQ-30" value="PC+4" style="text;html=1;align=center;verticalAlign=middle;resizable=0;points=[];autosize=1;strokeColor=none;fillColor=none;" parent="1" vertex="1">
          <mxGeometry x="-100" y="50" width="50" height="30" as="geometry" />
        </mxCell>
        <mxCell id="Tf9UtijGRLtNXAYoO0uQ-31" value="PC" style="text;html=1;align=center;verticalAlign=middle;resizable=0;points=[];autosize=1;strokeColor=none;fillColor=none;" parent="1" vertex="1">
          <mxGeometry x="614" y="120" width="40" height="30" as="geometry" />
        </mxCell>
        <mxCell id="Tf9UtijGRLtNXAYoO0uQ-32" value="instr" style="text;html=1;align=center;verticalAlign=middle;resizable=0;points=[];autosize=1;strokeColor=none;fillColor=none;" parent="1" vertex="1">
          <mxGeometry x="365" y="300" width="50" height="30" as="geometry" />
        </mxCell>
        <mxCell id="Tf9UtijGRLtNXAYoO0uQ-33" value="PC" style="text;html=1;align=center;verticalAlign=middle;resizable=0;points=[];autosize=1;strokeColor=none;fillColor=none;" parent="1" vertex="1">
          <mxGeometry x="1000" y="120" width="40" height="30" as="geometry" />
        </mxCell>
        <mxCell id="Tf9UtijGRLtNXAYoO0uQ-34" value="reg1" style="text;html=1;align=center;verticalAlign=middle;resizable=0;points=[];autosize=1;strokeColor=none;fillColor=none;" parent="1" vertex="1">
          <mxGeometry x="1040" y="315" width="50" height="30" as="geometry" />
        </mxCell>
        <mxCell id="Tf9UtijGRLtNXAYoO0uQ-35" value="reg2" style="text;html=1;align=center;verticalAlign=middle;resizable=0;points=[];autosize=1;strokeColor=none;fillColor=none;" parent="1" vertex="1">
          <mxGeometry x="1060" y="390" width="50" height="30" as="geometry" />
        </mxCell>
        <mxCell id="Tf9UtijGRLtNXAYoO0uQ-40" value="imm[31:0]" style="text;html=1;align=center;verticalAlign=middle;resizable=0;points=[];autosize=1;strokeColor=none;fillColor=none;" parent="1" vertex="1">
          <mxGeometry x="780" y="560" width="80" height="30" as="geometry" />
        </mxCell>
        <mxCell id="Tf9UtijGRLtNXAYoO0uQ-41" value="imm[31:0]" style="text;html=1;align=center;verticalAlign=middle;resizable=0;points=[];autosize=1;strokeColor=none;fillColor=none;" parent="1" vertex="1">
          <mxGeometry x="1340" y="560" width="80" height="30" as="geometry" />
        </mxCell>
        <mxCell id="Tf9UtijGRLtNXAYoO0uQ-44" value="reg2" style="text;html=1;align=center;verticalAlign=middle;resizable=0;points=[];autosize=1;strokeColor=none;fillColor=none;" parent="1" vertex="1">
          <mxGeometry x="1050" y="680" width="50" height="30" as="geometry" />
        </mxCell>
        <mxCell id="Tf9UtijGRLtNXAYoO0uQ-45" value="imm[31:0]" style="text;html=1;align=center;verticalAlign=middle;resizable=0;points=[];autosize=1;strokeColor=none;fillColor=none;" parent="1" vertex="1">
          <mxGeometry x="1035" y="740" width="80" height="30" as="geometry" />
        </mxCell>
        <mxCell id="Tf9UtijGRLtNXAYoO0uQ-46" value="reg1" style="text;html=1;align=center;verticalAlign=middle;resizable=0;points=[];autosize=1;strokeColor=none;fillColor=none;" parent="1" vertex="1">
          <mxGeometry x="1050" y="630" width="50" height="30" as="geometry" />
        </mxCell>
        <mxCell id="Tf9UtijGRLtNXAYoO0uQ-48" value="rd" style="text;html=1;align=center;verticalAlign=middle;resizable=0;points=[];autosize=1;strokeColor=none;fillColor=none;" parent="1" vertex="1">
          <mxGeometry x="1190" y="880" width="30" height="30" as="geometry" />
        </mxCell>
        <mxCell id="Tf9UtijGRLtNXAYoO0uQ-49" value="reg2" style="text;html=1;align=center;verticalAlign=middle;resizable=0;points=[];autosize=1;strokeColor=none;fillColor=none;" parent="1" vertex="1">
          <mxGeometry x="1360" y="530" width="50" height="30" as="geometry" />
        </mxCell>
        <mxCell id="Tf9UtijGRLtNXAYoO0uQ-50" value="rd" style="text;html=1;align=center;verticalAlign=middle;resizable=0;points=[];autosize=1;strokeColor=none;fillColor=none;" parent="1" vertex="1">
          <mxGeometry x="1730" y="890" width="30" height="30" as="geometry" />
        </mxCell>
        <mxCell id="Tf9UtijGRLtNXAYoO0uQ-51" value="rd" style="text;html=1;align=center;verticalAlign=middle;resizable=0;points=[];autosize=1;strokeColor=none;fillColor=none;" parent="1" vertex="1">
          <mxGeometry x="2110" y="890" width="30" height="30" as="geometry" />
        </mxCell>
        <mxCell id="Tf9UtijGRLtNXAYoO0uQ-52" value="ALU_out" style="text;html=1;align=center;verticalAlign=middle;resizable=0;points=[];autosize=1;strokeColor=none;fillColor=none;" parent="1" vertex="1">
          <mxGeometry x="1370" y="374" width="70" height="30" as="geometry" />
        </mxCell>
        <mxCell id="Tf9UtijGRLtNXAYoO0uQ-54" value="cmpmux_out" style="text;html=1;align=center;verticalAlign=middle;resizable=0;points=[];autosize=1;strokeColor=none;fillColor=none;" parent="1" vertex="1">
          <mxGeometry x="1160" y="708" width="90" height="30" as="geometry" />
        </mxCell>
        <mxCell id="Tf9UtijGRLtNXAYoO0uQ-55" value="alumux_out" style="text;html=1;align=center;verticalAlign=middle;resizable=0;points=[];autosize=1;strokeColor=none;fillColor=none;" parent="1" vertex="1">
          <mxGeometry x="1200" y="415" width="90" height="30" as="geometry" />
        </mxCell>
        <mxCell id="Tf9UtijGRLtNXAYoO0uQ-56" value="ALU_out" style="text;html=1;align=center;verticalAlign=middle;resizable=0;points=[];autosize=1;strokeColor=none;fillColor=none;" parent="1" vertex="1">
          <mxGeometry x="1590" y="380" width="70" height="30" as="geometry" />
        </mxCell>
        <mxCell id="Tf9UtijGRLtNXAYoO0uQ-58" value="&lt;b&gt;&lt;font color=&quot;#0000ff&quot;&gt;alumux2_sel&lt;/font&gt;&lt;/b&gt;" style="text;html=1;align=center;verticalAlign=middle;resizable=0;points=[];autosize=1;strokeColor=none;fillColor=none;" parent="1" vertex="1">
          <mxGeometry x="1125" y="508" width="100" height="30" as="geometry" />
        </mxCell>
        <mxCell id="Tf9UtijGRLtNXAYoO0uQ-59" value="&lt;b&gt;&lt;font color=&quot;#0000ff&quot;&gt;cmpmux_sel&lt;/font&gt;&lt;/b&gt;" style="text;html=1;align=center;verticalAlign=middle;resizable=0;points=[];autosize=1;strokeColor=none;fillColor=none;" parent="1" vertex="1">
          <mxGeometry x="1090" y="806" width="100" height="30" as="geometry" />
        </mxCell>
        <mxCell id="Tf9UtijGRLtNXAYoO0uQ-60" value="&lt;b&gt;&lt;font color=&quot;#0000ff&quot;&gt;regdestmux_sel&lt;/font&gt;&lt;/b&gt;" style="text;html=1;align=center;verticalAlign=middle;resizable=0;points=[];autosize=1;strokeColor=none;fillColor=none;" parent="1" vertex="1">
          <mxGeometry x="1085" y="960" width="110" height="30" as="geometry" />
        </mxCell>
        <mxCell id="Tf9UtijGRLtNXAYoO0uQ-61" value="reg2" style="text;html=1;align=center;verticalAlign=middle;resizable=0;points=[];autosize=1;strokeColor=none;fillColor=none;" parent="1" vertex="1">
          <mxGeometry x="1620" y="535" width="50" height="30" as="geometry" />
        </mxCell>
        <mxCell id="Tf9UtijGRLtNXAYoO0uQ-62" value="imm[31:0]" style="text;html=1;align=center;verticalAlign=middle;resizable=0;points=[];autosize=1;strokeColor=none;fillColor=none;" parent="1" vertex="1">
          <mxGeometry x="1640" y="650" width="80" height="30" as="geometry" />
        </mxCell>
        <mxCell id="Tf9UtijGRLtNXAYoO0uQ-63" value="ALU_out" style="text;html=1;align=center;verticalAlign=middle;resizable=0;points=[];autosize=1;strokeColor=none;fillColor=none;" parent="1" vertex="1">
          <mxGeometry x="1645" y="610" width="70" height="30" as="geometry" />
        </mxCell>
        <mxCell id="Tf9UtijGRLtNXAYoO0uQ-64" value="Br_en" style="text;html=1;align=center;verticalAlign=middle;resizable=0;points=[];autosize=1;strokeColor=none;fillColor=none;" parent="1" vertex="1">
          <mxGeometry x="1650" y="688" width="60" height="30" as="geometry" />
        </mxCell>
        <mxCell id="Tf9UtijGRLtNXAYoO0uQ-65" value="mem_rdata" style="text;html=1;align=center;verticalAlign=middle;resizable=0;points=[];autosize=1;strokeColor=none;fillColor=none;" parent="1" vertex="1">
          <mxGeometry x="1905" y="390" width="80" height="30" as="geometry" />
        </mxCell>
        <mxCell id="Tf9UtijGRLtNXAYoO0uQ-66" value="ALU_out" style="text;html=1;align=center;verticalAlign=middle;resizable=0;points=[];autosize=1;strokeColor=none;fillColor=none;" parent="1" vertex="1">
          <mxGeometry x="2090" y="610" width="70" height="30" as="geometry" />
        </mxCell>
        <mxCell id="Tf9UtijGRLtNXAYoO0uQ-67" value="imm[31:0]" style="text;html=1;align=center;verticalAlign=middle;resizable=0;points=[];autosize=1;strokeColor=none;fillColor=none;" parent="1" vertex="1">
          <mxGeometry x="2090" y="648" width="80" height="30" as="geometry" />
        </mxCell>
        <mxCell id="Tf9UtijGRLtNXAYoO0uQ-68" value="Br_en" style="text;html=1;align=center;verticalAlign=middle;resizable=0;points=[];autosize=1;strokeColor=none;fillColor=none;" parent="1" vertex="1">
          <mxGeometry x="2100" y="680" width="60" height="30" as="geometry" />
        </mxCell>
        <mxCell id="Tf9UtijGRLtNXAYoO0uQ-69" value="mem_rdata" style="text;html=1;align=center;verticalAlign=middle;resizable=0;points=[];autosize=1;strokeColor=none;fillColor=none;" parent="1" vertex="1">
          <mxGeometry x="2100" y="399.76" width="80" height="30" as="geometry" />
        </mxCell>
        <mxCell id="Tf9UtijGRLtNXAYoO0uQ-70" value="reg_wdata" style="text;html=1;align=center;verticalAlign=middle;resizable=0;points=[];autosize=1;strokeColor=none;fillColor=none;" parent="1" vertex="1">
          <mxGeometry x="2340" y="550" width="80" height="30" as="geometry" />
        </mxCell>
        <mxCell id="Tf9UtijGRLtNXAYoO0uQ-72" value="imm[31:0]" style="text;html=1;align=center;verticalAlign=middle;resizable=0;points=[];autosize=1;strokeColor=none;fillColor=none;" parent="1" vertex="1">
          <mxGeometry x="1050" y="445" width="80" height="30" as="geometry" />
        </mxCell>
        <mxCell id="Tf9UtijGRLtNXAYoO0uQ-75" style="edgeStyle=orthogonalEdgeStyle;rounded=0;orthogonalLoop=1;jettySize=auto;html=1;exitX=1;exitY=0.5;exitDx=0;exitDy=-5;exitPerimeter=0;" parent="1" source="Tf9UtijGRLtNXAYoO0uQ-73" edge="1">
          <mxGeometry relative="1" as="geometry">
            <mxPoint x="1290" y="370" as="targetPoint" />
          </mxGeometry>
        </mxCell>
        <mxCell id="Tf9UtijGRLtNXAYoO0uQ-73" value="ALU&lt;br&gt;Mux1" style="shadow=0;dashed=0;align=center;html=1;strokeWidth=1;shape=mxgraph.electrical.abstract.mux2;whiteSpace=wrap;" parent="1" vertex="1">
          <mxGeometry x="1140" y="270" width="80" height="110" as="geometry" />
        </mxCell>
        <mxCell id="Tf9UtijGRLtNXAYoO0uQ-76" value="&lt;b&gt;&lt;font color=&quot;#0000ff&quot;&gt;alumux1_sel&lt;/font&gt;&lt;/b&gt;" style="text;html=1;align=center;verticalAlign=middle;resizable=0;points=[];autosize=1;strokeColor=none;fillColor=none;" parent="1" vertex="1">
          <mxGeometry x="1130" y="369.76" width="100" height="30" as="geometry" />
        </mxCell>
        <mxCell id="Tf9UtijGRLtNXAYoO0uQ-77" value="&lt;font color=&quot;#0000ff&quot;&gt;&lt;b&gt;alu_op&lt;/b&gt;&lt;/font&gt;" style="text;html=1;align=center;verticalAlign=middle;resizable=0;points=[];autosize=1;strokeColor=none;fillColor=none;" parent="1" vertex="1">
          <mxGeometry x="1280" y="508" width="60" height="30" as="geometry" />
        </mxCell>
        <mxCell id="Tf9UtijGRLtNXAYoO0uQ-83" style="edgeStyle=orthogonalEdgeStyle;rounded=0;orthogonalLoop=1;jettySize=auto;html=1;entryX=-0.002;entryY=0.22;entryDx=0;entryDy=0;entryPerimeter=0;" parent="1" source="Tf9UtijGRLtNXAYoO0uQ-77" target="pQ_CkCxiemhS4KAJVdbK-86" edge="1">
          <mxGeometry relative="1" as="geometry" />
        </mxCell>
        <mxCell id="Tf9UtijGRLtNXAYoO0uQ-92" value="mem_addr" style="text;html=1;align=center;verticalAlign=middle;resizable=0;points=[];autosize=1;strokeColor=none;fillColor=none;" parent="1" vertex="1">
          <mxGeometry x="105" y="250" width="80" height="30" as="geometry" />
        </mxCell>
        <mxCell id="Tf9UtijGRLtNXAYoO0uQ-94" value="&lt;b&gt;&lt;font color=&quot;#0000ff&quot;&gt;Control&lt;/font&gt;&lt;/b&gt;" style="ellipse;whiteSpace=wrap;html=1;" parent="1" vertex="1">
          <mxGeometry x="539" y="-100" width="120" height="200" as="geometry" />
        </mxCell>
        <mxCell id="Tf9UtijGRLtNXAYoO0uQ-95" value="&lt;b&gt;&lt;font color=&quot;#0000ff&quot;&gt;WB&lt;/font&gt;&lt;/b&gt;" style="rounded=0;whiteSpace=wrap;html=1;" parent="1" vertex="1">
          <mxGeometry x="920" y="-110" width="50" height="60" as="geometry" />
        </mxCell>
        <mxCell id="Tf9UtijGRLtNXAYoO0uQ-96" value="&lt;font color=&quot;#0000ff&quot;&gt;&lt;b&gt;M&lt;/b&gt;&lt;/font&gt;" style="rounded=0;whiteSpace=wrap;html=1;" parent="1" vertex="1">
          <mxGeometry x="920" y="-50" width="50" height="60" as="geometry" />
        </mxCell>
        <mxCell id="Tf9UtijGRLtNXAYoO0uQ-97" value="&lt;font color=&quot;#0000ff&quot;&gt;&lt;b&gt;EX&lt;/b&gt;&lt;/font&gt;" style="rounded=0;whiteSpace=wrap;html=1;" parent="1" vertex="1">
          <mxGeometry x="920" y="10" width="50" height="60" as="geometry" />
        </mxCell>
        <mxCell id="Tf9UtijGRLtNXAYoO0uQ-98" style="edgeStyle=orthogonalEdgeStyle;rounded=0;orthogonalLoop=1;jettySize=auto;html=1;exitX=1;exitY=0;exitDx=0;exitDy=0;entryX=-0.02;entryY=0.637;entryDx=0;entryDy=0;entryPerimeter=0;strokeColor=#66B2FF;" parent="1" source="Tf9UtijGRLtNXAYoO0uQ-94" target="Tf9UtijGRLtNXAYoO0uQ-95" edge="1">
          <mxGeometry relative="1" as="geometry" />
        </mxCell>
        <mxCell id="Tf9UtijGRLtNXAYoO0uQ-99" style="edgeStyle=orthogonalEdgeStyle;rounded=0;orthogonalLoop=1;jettySize=auto;html=1;entryX=-0.02;entryY=0.637;entryDx=0;entryDy=0;entryPerimeter=0;strokeColor=#66B2FF;" parent="1" edge="1">
          <mxGeometry relative="1" as="geometry">
            <mxPoint x="660" y="-16" as="sourcePoint" />
            <mxPoint x="923" y="-15.759999999999998" as="targetPoint" />
          </mxGeometry>
        </mxCell>
        <mxCell id="Tf9UtijGRLtNXAYoO0uQ-100" style="edgeStyle=orthogonalEdgeStyle;rounded=0;orthogonalLoop=1;jettySize=auto;html=1;entryX=-0.02;entryY=0.637;entryDx=0;entryDy=0;entryPerimeter=0;strokeColor=#66B2FF;exitX=0.952;exitY=0.7;exitDx=0;exitDy=0;exitPerimeter=0;" parent="1" source="Tf9UtijGRLtNXAYoO0uQ-94" edge="1">
          <mxGeometry relative="1" as="geometry">
            <mxPoint x="657" y="40" as="sourcePoint" />
            <mxPoint x="920" y="40.24" as="targetPoint" />
          </mxGeometry>
        </mxCell>
        <mxCell id="Tf9UtijGRLtNXAYoO0uQ-101" value="&lt;b&gt;&lt;font color=&quot;#0000ff&quot;&gt;WB&lt;/font&gt;&lt;/b&gt;" style="rounded=0;whiteSpace=wrap;html=1;" parent="1" vertex="1">
          <mxGeometry x="1450" y="-110" width="70" height="60" as="geometry" />
        </mxCell>
        <mxCell id="Tf9UtijGRLtNXAYoO0uQ-102" value="&lt;font color=&quot;#0000ff&quot;&gt;&lt;b&gt;M&lt;/b&gt;&lt;/font&gt;" style="rounded=0;whiteSpace=wrap;html=1;" parent="1" vertex="1">
          <mxGeometry x="1450" y="-50" width="70" height="60" as="geometry" />
        </mxCell>
        <mxCell id="Tf9UtijGRLtNXAYoO0uQ-103" style="edgeStyle=orthogonalEdgeStyle;rounded=0;orthogonalLoop=1;jettySize=auto;html=1;exitX=1;exitY=0;exitDx=0;exitDy=0;entryX=-0.022;entryY=0.665;entryDx=0;entryDy=0;entryPerimeter=0;strokeColor=#66B2FF;" parent="1" target="Tf9UtijGRLtNXAYoO0uQ-101" edge="1">
          <mxGeometry relative="1" as="geometry">
            <mxPoint x="970" y="-79.77" as="sourcePoint" />
            <mxPoint x="1248" y="-80.77" as="targetPoint" />
          </mxGeometry>
        </mxCell>
        <mxCell id="Tf9UtijGRLtNXAYoO0uQ-104" style="edgeStyle=orthogonalEdgeStyle;rounded=0;orthogonalLoop=1;jettySize=auto;html=1;entryX=-0.066;entryY=0.606;entryDx=0;entryDy=0;entryPerimeter=0;strokeColor=#66B2FF;" parent="1" target="Tf9UtijGRLtNXAYoO0uQ-102" edge="1">
          <mxGeometry relative="1" as="geometry">
            <mxPoint x="970" y="-15.38" as="sourcePoint" />
            <mxPoint x="1233" y="-15.139999999999999" as="targetPoint" />
          </mxGeometry>
        </mxCell>
        <mxCell id="Tf9UtijGRLtNXAYoO0uQ-105" value="&lt;b&gt;&lt;font color=&quot;#0000ff&quot;&gt;WB&lt;/font&gt;&lt;/b&gt;" style="rounded=0;whiteSpace=wrap;html=1;" parent="1" vertex="1">
          <mxGeometry x="2000" y="-110" width="70" height="60" as="geometry" />
        </mxCell>
        <mxCell id="Tf9UtijGRLtNXAYoO0uQ-106" style="edgeStyle=orthogonalEdgeStyle;rounded=0;orthogonalLoop=1;jettySize=auto;html=1;exitX=1;exitY=0;exitDx=0;exitDy=0;entryX=0.018;entryY=0.349;entryDx=0;entryDy=0;entryPerimeter=0;strokeColor=#66B2FF;" parent="1" target="Tf9UtijGRLtNXAYoO0uQ-105" edge="1">
          <mxGeometry relative="1" as="geometry">
            <mxPoint x="1520" y="-79.8" as="sourcePoint" />
            <mxPoint x="1998" y="-70.03" as="targetPoint" />
          </mxGeometry>
        </mxCell>
        <mxCell id="Tf9UtijGRLtNXAYoO0uQ-107" value="&lt;font color=&quot;#0000ff&quot;&gt;&lt;b&gt;regfilemux_sel&lt;/b&gt;&lt;/font&gt;" style="text;html=1;align=center;verticalAlign=middle;resizable=0;points=[];autosize=1;strokeColor=none;fillColor=none;" parent="1" vertex="1">
          <mxGeometry x="2215" y="806" width="110" height="30" as="geometry" />
        </mxCell>
        <mxCell id="SbwVeRjZAVapehTIGWqB-9" style="edgeStyle=orthogonalEdgeStyle;rounded=0;orthogonalLoop=1;jettySize=auto;html=1;exitX=1;exitY=0.5;exitDx=0;exitDy=-5;exitPerimeter=0;" edge="1" parent="1">
          <mxGeometry relative="1" as="geometry">
            <mxPoint x="473" y="420" as="targetPoint" />
            <Array as="points">
              <mxPoint x="2180" y="919" />
              <mxPoint x="2180" y="1020" />
              <mxPoint x="473" y="1020" />
            </Array>
            <mxPoint x="2070" y="918.57" as="sourcePoint" />
          </mxGeometry>
        </mxCell>
        <mxCell id="SbwVeRjZAVapehTIGWqB-10" value="rd" style="text;html=1;align=center;verticalAlign=middle;resizable=0;points=[];autosize=1;strokeColor=none;fillColor=none;" vertex="1" parent="1">
          <mxGeometry x="629" y="880" width="30" height="30" as="geometry" />
        </mxCell>
      </root>
    </mxGraphModel>
  </diagram>
</mxfile>
